<?xml version="1.0" encoding="utf-8"?>
<!DOCTYPE svg PUBLIC "-//W3C//DTD SVG 1.1//EN" "http://www.w3.org/Graphics/SVG/1.1/DTD/svg11.dtd">
<svg version="1.1" xmlns="http://www.w3.org/2000/svg" xmlns:xlink="http://www.w3.org/1999/xlink" x="0px" y="0px" viewBox="0 0 1000 1000" enable-background="new 0 0 1000 1000" xml:space="preserve">
<g><path   fill="#fff" d="M791.3,98.2l-84.8-84.8c-4.6-4.6-12.8-4.6-17.5,0L294.7,407.9c-0.7,0.5-1.4,1-2,1.6l-83.9,83.9c-1.6,1.6-2.7,3.7-3.2,5.9c-0.3,1-0.4,1.9-0.4,2.9c-0.1,3.4,1.2,6.6,3.6,9l84.8,84.8c0.6,0.6,1.2,1.1,1.9,1.5l388.9,388.9c2.3,2.3,5.5,3.6,8.7,3.6s6.4-1.3,8.7-3.6l83.9-84c4.8-4.8,4.8-12.6,0-17.4L403.8,503.2l387.5-387.5C796.1,110.9,796.1,103.1,791.3,98.2z"/></g>
</svg>